<svg version="1.1" xmlns="http://www.w3.org/2000/svg" xmlns:xlink="http://www.w3.org/1999/xlink" width="50" height="40"
     viewBox="0 0 50 40" fill="">
    <svg id="1" width="47" height="41" viewBox="0 0 47 41" x="0" y="0">
        <path fill="rgb(255,255,255)" stroke="none" paint-order="stroke fill markers" fill-rule="evenodd"
              d=" M 20.994152784347534 3.5870795249938965 C 27.6055588722229 3.6086888313293457 30.347658216953278 4.214263916015625 32.99883407354355 5.9535558223724365 C 35.28437238931656 4.319995164871216 37.33965623378754 2.6347265243530273 40.96742445230484 2.5012118816375732 C 39.60806667804718 2.523078441619873 36.10632801055908 6.061859607696533 33.80675941705704 9.966712713241577 C 33.765275955200195 10.036942958831787 33.97232884168625 10.795069456100464 34.70834141969681 10.801758050918579 C 35.71773183345795 9.15996527671814 39.16911941766739 4.47100305557251 40.87346410751343 3.929741382598877 C 41.70574504137039 3.369442939758301 42.9894243478775 3.63698673248291 43.201639890670776 3.955724000930786 C 44.5495183467865 5.3683037757873535 39.77041703462601 9.857122659683228 38.4516316652298 10.796355724334717 C 38.26049190759659 11.145191669464111 38.634814858436584 11.89122724533081 38.96461749076843 11.705490112304688 C 41.71843910217285 10.153478860855103 45.02903801202774 6.727117538452148 44.85988509654999 3.733971357345581 C 44.629144728183746 1.8140873908996582 42.854952335357666 1.0760266780853271 40.69544357061386 1.2200887203216553 C 37.81443840265274 1.2200887203216553 34.19559854269028 3.420121908187866 32.975875437259674 4.570045709609985 C 30.10446673631668 2.8564791679382324 26.744913697242737 2.582246780395508 23.028165578842163 2.53928542137146 C 21.306875228881836 2.9676127433776855 22.994152784347534 3.5870795249938965 22.994152784347534 3.5870795249938965 M 42.29744619131088 24.259725332260132 C 40.63640707731247 24.420508861541748 37.136794209480286 24.973604202270508 34.61650687456131 28.42980694770813 C 35.007471799850464 28.36806607246399 35.6746084690094 28.42620539665222 36.09976840019226 28.379899740219116 C 38.2354074716568 25.115865468978882 43.59685641527176 25.318581342697144 43.60341602563858 25.315237045288086 C 44.29697334766388 21.657604694366455 44.55279815196991 15.377528667449951 41.15340155363083 12.249067068099976 C 40.845160603523254 11.96531629562378 40.289962470531464 12.437891244888306 40.33168888092041 12.810137271881104 C 42.435440957546234 15.605712652206421 43.399825155735016 19.57822346687317 42.29744619131088 24.259725332260132 Z M 25.060672998428345 26.360973119735718 C 25.36077517271042 21.771053552627563 27.424683690071106 18.741120100021362 28.676293790340424 18.301988124847412 C 28.18930345773697 19.338720321655273 28.299845039844513 19.516225337982178 28.09935176372528 20.205150604248047 C 29.87026435136795 20.115883588790894 34.575084149837494 19.294472694396973 40.148019790649414 23.17823100090027 C 36.22719490528107 24.457810640335083 31.577160000801086 28.756519079208374 31.577160000801086 28.756519079208374 C 31.577160000801086 28.756519079208374 29.452332139015198 26.426830053329468 25.02532398700714 26.59095788002014 C 25.02532398700714 26.59095788002014 25.060672998428345 26.360973119735718 25.060672998428345 26.360973119735718 M 30.41999614238739 21.20278024673462 C 30.151355803012848 23.141958236694336 28.945420026779175 23.74496078491211 29.31130051612854 23.212188482284546 C 30.094384372234344 22.07204031944275 29.96021604537964 20.774195671081543 27.498054146766663 21.590975999832153 C 27.179244935512543 22.04194164276123 26.49449449777603 23.388664484024048 26.506702661514282 24.143961191177368 C 28.06163400411606 26.07670783996582 31.273838758468628 24.725354433059692 31.524500906467438 22.539727449417114 C 31.509984731674194 21.635480880737305 30.86556375026703 21.2820143699646 30.41999614238739 21.20278024673462 Z M 27.05692034959793 30.05925154685974 C 27.70929789543152 30.000597715377808 32.132844030857086 30.11147403717041 39.973036110401154 30.090636491775513 C 41.012612879276276 28.998594760894775 24.66314846277237 28.854018211364746 27.05692034959793 30.05925154685974 Z M 27.839336097240448 31.733715534210205 C 30.090436458587646 31.783365488052368 31.293031692504883 31.721881866455078 38.46025633811951 31.72676968574524 C 39.787544906139374 30.665855646133423 25.60342001914978 30.564497709274292 27.839336097240448 31.733715534210205 Z M 28.443670570850372 33.436734676361084 C 30.81916058063507 33.38811373710632 32.55071550607681 33.43519115447998 37.67389267683029 33.44856834411621 C 37.758742451667786 32.370161056518555 31.412501633167267 32.5870258808136 28.443670570850372 32.62792921066284 C 31.11574000120163 32.57544946670532 30.851047575473785 32.984482765197754 28.443670570850372 33.436734676361084 M 23.047115564346313 3.5870795249938965 C 18.435709476470947 3.6086888313293457 15.693670868873596 4.214263916015625 13.042434275150299 5.9535558223724365 C 10.756895959377289 4.319995164871216 8.701429903507233 2.6347265243530273 5.073843896389008 2.5012118816375732 C 6.4332016706466675 2.523078441619873 9.934697389602661 6.061859607696533 12.23450893163681 9.966712713241577 C 12.275992393493652 10.036942958831787 12.068696558475494 10.795069456100464 11.33292692899704 10.801758050918579 C 10.323293566703796 9.15996527671814 6.87196671962738 4.47100305557251 5.16780424118042 3.929741382598877 C 4.335280358791351 3.369442939758301 3.051844000816345 3.63698673248291 2.8396284580230713 3.955724000930786 C 1.4915070533752441 5.3683037757873535 6.270851314067841 9.857122659683228 7.589697420597076 10.796355724334717 C 7.780837178230286 11.145191669464111 7.406514227390289 11.89122724533081 7.076650857925415 11.705490112304688 C 4.322889983654022 10.153478860855103 1.0122910737991333 6.727117538452148 1.1813832521438599 3.733971357345581 C 1.4123665690422058 1.8140873908996582 3.1863160133361816 1.0760266780853271 5.345824778079987 1.2200887203216553 C 8.226586997509003 1.2200887203216553 11.845426857471466 3.420121908187866 13.065149962902069 4.570045709609985 C 15.936801612377167 2.8564791679382324 19.29635465145111 2.582246780395508 23.01316350698471 2.53928542137146 C 24.73439311981201 2.9676127433776855 23.047115564346313 3.5870795249938965 23.047115564346313 3.5870795249938965 M 3.743822157382965 24.259725332260132 C 5.404861271381378 24.420508861541748 8.904474139213562 24.973604202270508 11.424761474132538 28.42980694770813 C 11.033796548843384 28.36806607246399 10.366659879684448 28.42620539665222 9.941256999969482 28.379899740219116 C 7.805860877037048 25.115865468978882 2.4444726705551147 25.318581342697144 2.437670111656189 25.315237045288086 C 1.7440520524978638 21.657604694366455 1.488470196723938 15.377528667449951 4.887623846530914 12.249067068099976 C 5.195925533771515 11.96531629562378 5.7510629296302795 12.437891244888306 5.709397256374359 12.810137271881104 C 3.606070339679718 15.605712652206421 2.6412002444267273 19.57822346687317 3.743822157382965 24.259725332260132 Z M 20.980595350265503 26.360973119735718 C 20.68049317598343 21.771053552627563 18.61658465862274 18.741120100021362 17.364792346954346 18.301988124847412 C 17.852025628089905 19.338720321655273 17.741423308849335 19.516225337982178 17.941977322101593 20.205150604248047 C 16.171064734458923 20.115883588790894 11.466184198856354 19.294472694396973 5.893248558044434 23.17823100090027 C 9.81407344341278 24.457810640335083 14.463865399360657 28.756519079208374 14.463865399360657 28.756519079208374 C 14.463865399360657 28.756519079208374 16.58893620967865 26.426830053329468 21.015944361686707 26.59095788002014 C 21.015944361686707 26.59095788002014 20.980595350265503 26.360973119735718 20.980595350265503 26.360973119735718 M 15.621272206306458 21.20278024673462 C 15.889973282814026 23.141958236694336 17.095848321914673 23.74496078491211 16.729967832565308 23.212188482284546 C 15.946641027927399 22.07204031944275 16.081113040447235 20.774195671081543 18.54327493906021 21.590975999832153 C 18.86208415031433 22.04194164276123 19.546773850917816 23.388664484024048 19.534565687179565 24.143961191177368 C 17.97945213317871 26.07670783996582 14.767186641693115 24.725354433059692 14.516828179359436 22.539727449417114 C 14.53134435415268 21.635480880737305 15.175704598426819 21.2820143699646 15.621272206306458 21.20278024673462 Z M 18.984347999095917 30.05925154685974 C 18.33197045326233 30.000597715377808 13.908485054969788 30.11147403717041 6.068232238292694 30.090636491775513 C 5.0284125208854675 28.998594760894775 21.37811988592148 28.854018211364746 18.984347999095917 30.05925154685974 Z M 18.20175004005432 31.733715534210205 C 15.950831890106201 31.783365488052368 14.74799370765686 31.721881866455078 7.581012010574341 31.72676968574524 C 6.2537841796875 30.665855646133423 20.437605381011963 30.564497709274292 18.20175004005432 31.733715534210205 Z M 17.59735482931137 33.436734676361084 C 15.221864819526672 33.38811373710632 13.490552842617035 33.43519115447998 8.367375671863556 33.44856834411621 C 8.282343685626984 32.370161056518555 14.628523766994476 32.5870258808136 17.59735482931137 32.62792921066284 C 14.925589084625244 32.57544946670532 15.190281510353088 32.984482765197754 17.59735482931137 33.436734676361084 M 22.982248306274414 15.072940349578857 C 22.182765424251556 17.114505290985107 22.01992917060852 24.28545069694519 21.99393367767334 29.355405569076538 C 20.802088916301727 30.940088033676147 20.925567507743835 32.784339427948 20.925567507743835 32.784339427948 C 18.521470308303833 33.80923795700073 19.239443957805634 36.13969874382019 21.36475771665573 36.839171409606934 C 19.66387504339218 36.63439750671387 17.880329132080078 35.825592041015625 16.74120420217514 34.26946473121643 C 16.68733036518097 39.12641358375549 29.196993231773376 39.75745677947998 29.142208337783813 34.240909576416016 C 28.503618121147156 35.935439348220825 25.5139542222023 36.62282109260559 24.449050068855286 36.75119066238403 C 26.568047165870667 36.35862159729004 27.514635384082794 33.60266327857971 25.02253007888794 32.8301305770874 C 24.809585690498352 31.528427124023438 24.710037529468536 30.41914939880371 24.00518310070038 29.41277313232422 C 24.00518310070038 24.07424545288086 23.716378033161163 17.136371850967407 23.086230278015137 15.007340669631958 C 23.051306426525116 15.029207229614258 23.016686260700226 15.051073789596558 22.982248306274414 15.072940349578857 Z"/>
    </svg>
</svg>